<mxfile host="app.diagrams.net" agent="Mozilla/5.0 (Windows NT 10.0; Win64; x64) AppleWebKit/537.36 (KHTML, like Gecko) Chrome/128.0.0.0 Safari/537.36 OPR/114.0.0.0" version="25.0.1">
  <diagram name="Diagrama de Despliegue" id="G_fz82QMEukT9JXdUqyt">
    <mxGraphModel grid="1" page="1" gridSize="10" guides="1" tooltips="1" connect="1" arrows="1" fold="1" pageScale="1" pageWidth="827" pageHeight="1169" math="0" shadow="0">
      <root>
        <mxCell id="0" />
        <mxCell id="1" parent="0" />
        <mxCell id="9InAW1lPxQpZJkYjMw6R-7" value="Dispositivo Cliente" style="verticalAlign=top;align=center;spacingTop=8;spacingLeft=2;spacingRight=12;shape=cube;size=10;direction=south;fontStyle=4;html=1;whiteSpace=wrap;" vertex="1" parent="1">
          <mxGeometry x="110" y="50" width="180" height="180" as="geometry" />
        </mxCell>
        <mxCell id="9InAW1lPxQpZJkYjMw6R-10" value="Servidor Web" style="verticalAlign=top;align=center;spacingTop=8;spacingLeft=2;spacingRight=12;shape=cube;size=10;direction=south;fontStyle=4;html=1;whiteSpace=wrap;" vertex="1" parent="1">
          <mxGeometry x="100" y="380" width="176" height="240" as="geometry" />
        </mxCell>
        <mxCell id="9InAW1lPxQpZJkYjMw6R-11" value="HTML5" style="shape=module;align=left;spacingLeft=20;align=center;verticalAlign=top;whiteSpace=wrap;html=1;" vertex="1" parent="1">
          <mxGeometry x="124" y="425" width="100" height="50" as="geometry" />
        </mxCell>
        <mxCell id="9InAW1lPxQpZJkYjMw6R-12" value="CSS" style="shape=module;align=left;spacingLeft=20;align=center;verticalAlign=top;whiteSpace=wrap;html=1;" vertex="1" parent="1">
          <mxGeometry x="124" y="485" width="100" height="50" as="geometry" />
        </mxCell>
        <mxCell id="9InAW1lPxQpZJkYjMw6R-13" value="JavaScript" style="shape=module;align=left;spacingLeft=20;align=center;verticalAlign=top;whiteSpace=wrap;html=1;" vertex="1" parent="1">
          <mxGeometry x="124" y="545" width="100" height="50" as="geometry" />
        </mxCell>
        <mxCell id="9InAW1lPxQpZJkYjMw6R-14" value="Servidor Backend" style="verticalAlign=top;align=center;spacingTop=8;spacingLeft=2;spacingRight=12;shape=cube;size=10;direction=south;fontStyle=4;html=1;whiteSpace=wrap;" vertex="1" parent="1">
          <mxGeometry x="440" y="240" width="240" height="430" as="geometry" />
        </mxCell>
        <mxCell id="9InAW1lPxQpZJkYjMw6R-15" value="Servidor de Base de Datos" style="verticalAlign=top;align=center;spacingTop=8;spacingLeft=2;spacingRight=12;shape=cube;size=10;direction=south;fontStyle=4;html=1;whiteSpace=wrap;" vertex="1" parent="1">
          <mxGeometry x="950" y="410" width="180" height="180" as="geometry" />
        </mxCell>
        <mxCell id="9InAW1lPxQpZJkYjMw6R-16" value="Servidor de Notificaciones:" style="verticalAlign=top;align=center;spacingTop=8;spacingLeft=2;spacingRight=12;shape=cube;size=10;direction=south;fontStyle=4;html=1;whiteSpace=wrap;" vertex="1" parent="1">
          <mxGeometry x="470" y="800" width="180" height="180" as="geometry" />
        </mxCell>
        <mxCell id="lCItwhxXQuGAqpp7MpZN-2" value="PC" style="shape=module;align=left;spacingLeft=20;align=center;verticalAlign=top;whiteSpace=wrap;html=1;" vertex="1" parent="1">
          <mxGeometry x="150" y="170" width="100" height="50" as="geometry" />
        </mxCell>
        <mxCell id="GjXWRQbSgJbhP0s5dt0Q-2" value="SMS" style="shape=module;align=left;spacingLeft=20;align=center;verticalAlign=top;whiteSpace=wrap;html=1;" vertex="1" parent="1">
          <mxGeometry x="500" y="845" width="100" height="50" as="geometry" />
        </mxCell>
        <mxCell id="GjXWRQbSgJbhP0s5dt0Q-3" value="Correo" style="shape=module;align=left;spacingLeft=20;align=center;verticalAlign=top;whiteSpace=wrap;html=1;" vertex="1" parent="1">
          <mxGeometry x="500" y="915" width="100" height="50" as="geometry" />
        </mxCell>
        <mxCell id="GjXWRQbSgJbhP0s5dt0Q-5" value="AutenticaciÃ³n" style="shape=module;align=left;spacingLeft=20;align=center;verticalAlign=top;whiteSpace=wrap;html=1;" vertex="1" parent="1">
          <mxGeometry x="500" y="290" width="110" height="50" as="geometry" />
        </mxCell>
        <mxCell id="GjXWRQbSgJbhP0s5dt0Q-6" value="Gestion de Servicios" style="shape=module;align=left;spacingLeft=20;align=center;verticalAlign=top;whiteSpace=wrap;html=1;" vertex="1" parent="1">
          <mxGeometry x="500" y="350" width="110" height="50" as="geometry" />
        </mxCell>
        <mxCell id="GjXWRQbSgJbhP0s5dt0Q-7" value="&lt;div&gt;Citas&lt;/div&gt;&lt;div&gt;&lt;br&gt;&lt;/div&gt;" style="shape=module;align=left;spacingLeft=20;align=center;verticalAlign=top;whiteSpace=wrap;html=1;" vertex="1" parent="1">
          <mxGeometry x="500" y="410" width="110" height="50" as="geometry" />
        </mxCell>
        <mxCell id="GjXWRQbSgJbhP0s5dt0Q-9" value="&lt;div&gt;Productos&lt;br&gt;&lt;/div&gt;&lt;div&gt;&lt;span style=&quot;font-weight: 700;&quot;&gt;&lt;br&gt;&lt;/span&gt;&lt;/div&gt;" style="shape=module;align=left;spacingLeft=20;align=center;verticalAlign=top;whiteSpace=wrap;html=1;" vertex="1" parent="1">
          <mxGeometry x="500" y="470" width="110" height="50" as="geometry" />
        </mxCell>
        <mxCell id="GjXWRQbSgJbhP0s5dt0Q-10" value="&lt;div&gt;Reserva&lt;br&gt;&lt;/div&gt;" style="shape=module;align=left;spacingLeft=20;align=center;verticalAlign=top;whiteSpace=wrap;html=1;" vertex="1" parent="1">
          <mxGeometry x="500" y="534.5" width="110" height="50" as="geometry" />
        </mxCell>
        <mxCell id="GjXWRQbSgJbhP0s5dt0Q-11" value="&lt;div&gt;Notificaciones&lt;br&gt;&lt;/div&gt;" style="shape=module;align=left;spacingLeft=20;align=center;verticalAlign=top;whiteSpace=wrap;html=1;" vertex="1" parent="1">
          <mxGeometry x="500" y="600" width="110" height="50" as="geometry" />
        </mxCell>
        <mxCell id="R_qfSCJGyTLWj3COfX-O-3" value="" style="endArrow=none;html=1;rounded=0;entryX=0;entryY=0;entryDx=180;entryDy=95;entryPerimeter=0;exitX=0;exitY=0;exitDx=0;exitDy=83;exitPerimeter=0;" edge="1" parent="1" source="9InAW1lPxQpZJkYjMw6R-10" target="9InAW1lPxQpZJkYjMw6R-7">
          <mxGeometry width="50" height="50" relative="1" as="geometry">
            <mxPoint x="20" y="400" as="sourcePoint" />
            <mxPoint x="70" y="350" as="targetPoint" />
          </mxGeometry>
        </mxCell>
        <mxCell id="R_qfSCJGyTLWj3COfX-O-4" value="" style="endArrow=none;html=1;rounded=0;entryX=0.561;entryY=1;entryDx=0;entryDy=0;entryPerimeter=0;exitX=0.421;exitY=0.004;exitDx=0;exitDy=0;exitPerimeter=0;" edge="1" parent="1" source="9InAW1lPxQpZJkYjMw6R-10" target="9InAW1lPxQpZJkYjMw6R-14">
          <mxGeometry width="50" height="50" relative="1" as="geometry">
            <mxPoint x="280" y="460" as="sourcePoint" />
            <mxPoint x="205" y="240" as="targetPoint" />
          </mxGeometry>
        </mxCell>
        <mxCell id="R_qfSCJGyTLWj3COfX-O-5" value="" style="endArrow=none;html=1;rounded=0;entryX=0.619;entryY=0.006;entryDx=0;entryDy=0;entryPerimeter=0;exitX=0.537;exitY=1.012;exitDx=0;exitDy=0;exitPerimeter=0;" edge="1" parent="1" source="9InAW1lPxQpZJkYjMw6R-15" target="9InAW1lPxQpZJkYjMw6R-14">
          <mxGeometry width="50" height="50" relative="1" as="geometry">
            <mxPoint x="285" y="491" as="sourcePoint" />
            <mxPoint x="450" y="491" as="targetPoint" />
          </mxGeometry>
        </mxCell>
        <mxCell id="R_qfSCJGyTLWj3COfX-O-6" value="" style="endArrow=none;html=1;rounded=0;entryX=-0.003;entryY=0.522;entryDx=0;entryDy=0;entryPerimeter=0;exitX=0;exitY=0;exitDx=430;exitDy=124.99999999999999;exitPerimeter=0;" edge="1" parent="1" source="9InAW1lPxQpZJkYjMw6R-14" target="9InAW1lPxQpZJkYjMw6R-16">
          <mxGeometry width="50" height="50" relative="1" as="geometry">
            <mxPoint x="285" y="491" as="sourcePoint" />
            <mxPoint x="450" y="491" as="targetPoint" />
          </mxGeometry>
        </mxCell>
        <mxCell id="pUdGJOsWxSbAkhaMktGu-1" value="&lt;div&gt;&lt;br&gt;&lt;/div&gt;&lt;div&gt;MySQL&lt;/div&gt;" style="shape=module;align=left;spacingLeft=20;align=center;verticalAlign=top;whiteSpace=wrap;html=1;" vertex="1" parent="1">
          <mxGeometry x="985" y="475" width="110" height="50" as="geometry" />
        </mxCell>
      </root>
    </mxGraphModel>
  </diagram>
</mxfile>
